<?xml version="1.0" standalone="no"?><!DOCTYPE svg PUBLIC "-//W3C//DTD SVG 1.1//EN" "http://www.w3.org/Graphics/SVG/1.1/DTD/svg11.dtd"><svg t="1678790351187" class="icon" viewBox="0 0 1024 1024" version="1.1" xmlns="http://www.w3.org/2000/svg" p-id="33642" xmlns:xlink="http://www.w3.org/1999/xlink" width="50" height="50"><path d="M811.008 936.0896H221.4912c-72.192 0-130.7136-58.5216-130.7136-130.7136V296.8576c0-72.192 58.5216-130.7136 130.7136-130.7136H811.008c72.192 0 130.7136 58.5216 130.7136 130.7136v508.5184c0.0512 72.192-58.4704 130.7136-130.7136 130.7136z" fill="#4BE2AC" p-id="33643"></path><path d="M335.2064 324.7616c-22.6304 0-40.96-18.3296-40.96-40.96V109.9264c0-22.6304 18.3296-40.96 40.96-40.96s40.96 18.3296 40.96 40.96v173.8752c0 22.5792-18.3296 40.96-40.96 40.96zM694.6816 324.7616c-22.6304 0-40.96-18.3296-40.96-40.96V109.9264c0-22.6304 18.3296-40.96 40.96-40.96s40.96 18.3296 40.96 40.96v173.8752c0 22.5792-18.3296 40.96-40.96 40.96z" fill="#4BE2AC" p-id="33644"></path><path d="M653.7216 166.144v117.6576c0 22.6304 18.3296 40.96 40.96 40.96s40.96-18.3296 40.96-40.96V166.144h-81.92zM294.2464 166.144v117.6576c0 22.6304 18.3296 40.96 40.96 40.96s40.96-18.3296 40.96-40.96V166.144h-81.92z" fill="#06CC76" p-id="33645"></path><path d="M487.2192 628.992c24.5248-25.344 39.68-59.8016 39.68-97.792 0-77.568-63.1296-140.6976-140.6976-140.6976S245.504 453.632 245.504 531.2512c0 37.9392 15.1552 72.448 39.68 97.792-48.8448 32.7168-81.1008 88.3712-81.1008 151.4496 0 22.6304 18.3296 40.96 40.96 40.96s40.96-18.3296 40.96-40.96c0-55.2448 44.9536-100.1984 100.1984-100.1984S486.4 725.1968 486.4 780.4416c0 22.6304 18.3296 40.96 40.96 40.96s40.96-18.3296 40.96-40.96c0-63.0784-32.256-118.7328-81.1008-151.4496zM386.2016 472.4736c32.4096 0 58.7776 26.368 58.7776 58.7776s-26.368 58.7776-58.7776 58.7776-58.7776-26.368-58.7776-58.7776 26.368-58.7776 58.7776-58.7776zM780.9536 544.3584h-148.0704c-22.6304 0-40.96-18.3296-40.96-40.96s18.3296-40.96 40.96-40.96h148.0704c22.6304 0 40.96 18.3296 40.96 40.96s-18.3296 40.96-40.96 40.96zM745.1648 711.9872H668.672c-22.6304 0-40.96-18.3296-40.96-40.96s18.3296-40.96 40.96-40.96h76.4928c22.6304 0 40.96 18.3296 40.96 40.96s-18.3296 40.96-40.96 40.96z" fill="#FFFFFF" p-id="33646"></path></svg>