<?xml version="1.0" standalone="no"?><!DOCTYPE svg PUBLIC "-//W3C//DTD SVG 1.1//EN" "http://www.w3.org/Graphics/SVG/1.1/DTD/svg11.dtd"><svg t="1705738640651" class="icon" viewBox="0 0 1024 1024" version="1.1" xmlns="http://www.w3.org/2000/svg" p-id="14688" xmlns:xlink="http://www.w3.org/1999/xlink" width="200" height="200"><path d="M208.323765 0h607.35247C922.262588 0 1008.941176 89.088 1008.941176 198.595765V822.814118c0 109.507765-86.678588 198.595765-193.264941 198.595764H208.323765C101.737412 1021.379765 15.058824 932.291765 15.058824 822.784V198.595765C15.058824 89.088 101.737412 0 208.323765 0z" fill="#170B1A" p-id="14689"></path><path d="M503.356235 309.458824c0.572235-63.427765 0-126.855529 0.572236-190.283295h128.150588c-0.572235 11.203765 1.114353 22.437647 2.770823 33.129412h-94.32847v515.312941a124.295529 124.295529 0 0 1-15.510588 62.85553c-16.655059 29.214118-47.736471 49.392941-81.016471 52.224a107.580235 107.580235 0 0 1-61.590588-12.950588A106.134588 106.134588 0 0 1 346.352941 737.249882c32.737882 18.522353 75.444706 16.835765 107.068235-3.915294 30.509176-19.094588 50.507294-55.024941 50.507295-92.069647-0.572235-110.592-0.572235-221.184-0.572236-331.776z m211.395765-36.472471c17.769412 11.203765 37.707294 20.178824 58.247529 24.696471 12.197647 2.800941 24.395294 3.915294 37.165177 3.915294v29.214117a182.302118 182.302118 0 0 1-95.412706-57.825882z" fill="#25F4EE" p-id="14690"></path><path d="M275.576471 427.459765a223.111529 223.111529 0 0 1 153.6-33.520941v31.232a267.956706 267.956706 0 0 0-42.255059 5.12 236.664471 236.664471 0 0 0-94.328471 43.730823c-30.177882 23.280941-53.217882 55.115294-69.12 90.322824a250.277647 250.277647 0 0 0-22.497882 107.911529c0 40.899765 10.962824 80.655059 29.605647 116.434824 8.794353 16.474353 18.672941 32.376471 31.834353 45.447529-26.895059-19.335529-49.392941-45.477647-65.837177-74.992941-22.497882-39.183059-33.430588-85.202824-32.37647-131.192471A256.210824 256.210824 0 0 1 198.776471 508.084706a236.212706 236.212706 0 0 1 76.8-80.624941z" fill="#25F4EE" p-id="14691"></path><path d="M540.491294 153.208471h94.780235c3.312941 18.582588 9.999059 36.050824 18.31153 52.946823 13.312 25.901176 32.135529 49.031529 56.530823 64.240941a13.071059 13.071059 0 0 1 3.915294 3.915294 181.428706 181.428706 0 0 0 95.894589 58.066824c0.542118 33.792 0 68.156235 0 101.978353a297.020235 297.020235 0 0 1-176.308706-56.922353c0 81.136941 0 162.273882 0.542117 243.380706 0 10.721882 0.572235 21.413647 0 32.677647a269.312 269.312 0 0 1-34.334117 112.700235 243.802353 243.802353 0 0 1-66.56 76.619294 211.516235 211.516235 0 0 1-121.404235 42.255059c-22.166588 0.572235-44.363294-0.572235-65.957648-5.632a235.459765 235.459765 0 0 1-84.841411-37.737412l-1.656471-1.716706c-12.769882-12.950588-23.311059-28.732235-32.165647-45.056-18.853647-34.936471-29.936941-74.932706-29.936941-115.501176a246.061176 246.061176 0 0 1 22.738823-107.038118c16.052706-34.936471 39.905882-66.499765 69.872942-89.6a241.242353 241.242353 0 0 1 95.322353-43.369411c13.854118-2.831059 28.310588-4.517647 42.706823-5.059765 0.542118 12.950588 0 25.901176 0.542118 38.309647v65.897412c-16.082824-5.632-33.822118-5.632-50.447059-1.686589a124.084706 124.084706 0 0 0-54.332235 27.045648c-9.426824 8.432941-17.769412 18.582588-23.280942 29.876705-9.999059 19.154824-13.312 41.682824-11.083294 63.096471 2.198588 20.841412 11.083294 41.110588 24.395294 56.922353 8.854588 11.233882 20.48 19.696941 32.13553 27.587765 9.426824 13.522824 21.624471 24.786824 36.050823 32.677647a111.796706 111.796706 0 0 0 61.530353 12.950588c33.28-2.258824 64.301176-23.100235 80.956236-52.404706 10.541176-19.154824 16.082824-41.110588 15.510588-63.096471 1.114353-173.537882 0.572235-345.931294 0.572235-518.324705z" fill="#FFFFFF" p-id="14692"></path><path d="M650.119529 136.192c10.992941 0.542118 21.985882 0 33.490824 0a189.138824 189.138824 0 0 0 32.948706 106.616471c2.740706 3.975529 5.481412 7.348706 8.252235 10.752-24.154353-15.239529-43.369412-38.369882-56.018823-64.331295a216.335059 216.335059 0 0 1-18.672942-53.037176z m172.965647 179.440941c12.047059 2.800941 24.154353 3.915294 36.773648 3.915294v131.493647c-62.584471 0.602353-125.168941-20.871529-176.248471-58.669176v260.698353a233.833412 233.833412 0 0 1-5.481412 58.669176c-12.047059 58.699294-46.110118 111.736471-93.334588 146.160941a225.520941 225.520941 0 0 1-83.425882 38.369883 225.942588 225.942588 0 0 1-109.808942-1.686588A230.309647 230.309647 0 0 1 280.094118 825.735529a222.780235 222.780235 0 0 0 84.028235 37.797647c21.383529 5.089882 43.369412 6.204235 65.295059 5.662118a207.932235 207.932235 0 0 0 120.259764-42.345412c26.895059-20.299294 48.850824-46.832941 65.867295-76.739764a271.962353 271.962353 0 0 0 34.032941-112.850824c0.542118-10.721882 0.542118-21.443765 0-32.737882-0.542118-81.227294-0.542118-162.484706-0.542118-243.742118a291.900235 291.900235 0 0 0 174.592 56.982588c-0.542118-33.852235 0-68.276706-0.542118-102.128941z" fill="#FE2C55" p-id="14693"></path><path d="M440.380235 425.562353c12.649412 0 25.840941 0.602353 38.490353 2.258823v134.866824a106.706824 106.706824 0 0 0-58.006588-2.258824 110.983529 110.983529 0 0 0-79.299765 69.421177c-12.649412 33.852235-7.469176 73.366588 14.366118 102.128941a120.229647 120.229647 0 0 1-33.310118-27.648 105.502118 105.502118 0 0 1-25.298823-56.982588c-2.288941-21.443765 1.174588-44.032 11.504941-63.216941 5.722353-11.264 14.366118-21.443765 24.124235-29.906824 16.082824-13.552941 36.201412-21.985882 56.32-27.075765 17.227294-3.945412 35.599059-3.945412 52.254118 1.686589v-66.017883c-1.144471-11.294118-0.572235-24.274824-1.144471-37.255529z" fill="#FE2C55" p-id="14694"></path></svg>