<?xml version="1.0" standalone="no"?><!DOCTYPE svg PUBLIC "-//W3C//DTD SVG 1.1//EN" "http://www.w3.org/Graphics/SVG/1.1/DTD/svg11.dtd"><svg t="1705738734247" class="icon" viewBox="0 0 1316 1024" version="1.1" xmlns="http://www.w3.org/2000/svg" p-id="16754" xmlns:xlink="http://www.w3.org/1999/xlink" width="257.03125" height="200"><path d="M890.54633018 907.5078125a74.8087995 74.8087995 0 0 1-29.2530015-5.9820742c-81.25103391-34.38049379-152.44429333-135.94428597-239.61166448-277.41048749-81.84266725 135.08970406-147.51401266 241.25509137-233.03795617 277.41048749a74.54585092 74.54585092 0 0 1-29.2530015 5.9820742c-51.53787219 0-101.36658056-51.53787219-148.03990905-153.03592744A1133.11008579 1133.11008579 0 0 1 126.9443837 463.84824477a669.86086778 669.86086778 0 0 1-3.74701399-209.89850355C139.43442927 163.36404161 182.95237789 131.81024216 216.60976366 121.35804596a104.061801 104.061801 0 0 1 30.96216611-4.66733285c61.33269734 0 131.86858724 51.20918667 215.74910386 156.51999284a2036.07464747 2036.07464747 0 0 1 157.24310008 235.01006936 1874.62437321 1874.62437321 0 0 1 165.85465853-243.22720456c83.02593469-99.9203653 153.29887602-148.56580544 214.82878498-148.56580546a108.2689744 108.2689744 0 0 1 32.21116974 4.79880676c33.65738576 10.4521962 77.1753344 41.94025868 93.41239394 132.59169526a669.86086778 669.86086778 0 0 1-3.74701321 209.89850354 1133.11008579 1133.11008579 0 0 1-84.40641377 290.62364031c-46.8048024 101.62952914-96.63351077 153.10166438-148.17138374 153.16740134z m-227.5160414-341.83282774c71.39047105 117.20921762 151.19528892 244.27899733 223.50607961 275.04395259a9.00598016 9.00598016 0 0 0 3.68127704 0.78884496c12.29283471 0 46.60759154-23.99403532 88.35063783-114.77694577a1079.99452366 1079.99452366 0 0 0 78.884499-273.00610244c22.54781928-148.56580544 5.19322924-254.53398267-44.17531891-269.85072258a41.94025868 41.94025868 0 0 0-12.68725719-1.84063851C928.08220461 182.23058463 796.21361738 332.24260611 663.03028878 565.87219639zM247.44045509 182.23058463a37.99603386 37.99603386 0 0 0-11.43825202 1.6434269C186.63365414 199.25648837 169.27906488 305.15892788 191.82688338 453.72473411a1079.99452366 1079.99452366 0 0 0 78.88449901 273.00610244c41.74304707 90.78291047 75.99206694 114.77694578 88.35063862 114.77694576a9.00598016 9.00598016 0 0 0 3.61553928-0.78884496c67.8406687-28.66136815 132.65743221-135.74707512 207.79491724-259.72721191l8.21713521-13.60757607a2094.44917657 2094.44917657 0 0 0-167.1693999-253.54792609C320.27714217 199.51943695 269.65958884 182.23058463 247.44045509 182.23058463z" fill="#fe9b1f" p-id="16755"></path></svg>