<?xml version="1.0" standalone="no"?><!DOCTYPE svg PUBLIC "-//W3C//DTD SVG 1.1//EN" "http://www.w3.org/Graphics/SVG/1.1/DTD/svg11.dtd"><svg t="1705737935911" class="icon" viewBox="0 0 1024 1024" version="1.1" xmlns="http://www.w3.org/2000/svg" p-id="13669" xmlns:xlink="http://www.w3.org/1999/xlink" width="200" height="200"><path d="M206.506667 42.287407h609.848889c91.022222 0 164.598519 73.576296 164.598518 164.598519v609.848889c0 91.022222-73.576296 164.598519-164.598518 164.598518H206.506667c-91.022222 0-164.598519-73.576296-164.598519-164.598518V206.696296c0-90.832593 73.765926-164.408889 164.598519-164.408889z m0 0" fill="#FFFFFF" p-id="13670"></path><path d="M816.355556 984.936296H206.506667c-93.108148 0-168.201481-75.662222-168.201482-168.201481V206.696296c0-93.108148 75.093333-168.201481 168.201482-168.201481h609.848889c93.108148 0 168.201481 75.093333 168.201481 168.201481v609.848889c0.18963 92.728889-75.093333 168.391111-168.201481 168.391111zM206.506667 45.89037c-88.936296 0-160.805926 72.059259-160.805926 160.805926v609.848889c0 88.936296 72.059259 161.374815 161.374815 161.374815h609.848888c88.936296 0 160.805926-72.059259 161.374815-161.374815V206.696296c0-88.936296-72.059259-160.805926-161.374815-161.374815l-610.417777 0.568889z m0 0" fill="#DBDCDC" p-id="13671"></path><path d="M38.305185 241.967407v574.577778c0 4.740741 0 10.05037 0.568889 14.791111l945.872593-53.665185V206.696296c0-4.740741 0-10.05037-0.568889-14.791111L38.305185 241.967407z m0 0" fill="#f85959" p-id="13672"></path><path d="M884.242963 527.928889l-141.842963 7.964444v-22.565926l-68.456296 3.602963v22.755556l-142.032593 7.774815v44.752592l142.032593-7.964444v98.797037l68.456296-3.602963v-98.797037l141.842963-7.964445z" fill="#FFFFFF" p-id="13673"></path><path d="M624.071111 367.122963l186.595556-10.42963v10.998519l-104.106667 51.01037-80.971852-29.961481-27.306667 41.528889 47.786667 17.825185-81.92 40.580741-32.237037 1.517037v44.752592l48.924445-2.654815 125.724444-62.198518 128.18963 47.407407 49.493333-2.654815v-44.752592l-32.616296 2.275555-84.574815-31.099259 112.45037-55.182222v-78.317037l-68.266666 3.602963-157.771852 8.912592-54.613334-25.789629-69.973333 110.554074 57.837037 21.048889zM532.48 692.148148l68.456296-3.792592 45.700741-88.367408-68.456296 3.792593zM847.454815 588.041481l-68.266667 3.602963 49.872593 83.057778 68.266666-3.602963zM369.967407 591.075556l54.234074 106.192592 75.662223-3.602963-54.044445-106.192592zM299.045926 426.477037l-55.182222-69.404444-75.093334 4.361481 55.182223 69.783704zM299.045926 513.896296l-55.182222-69.973333-75.093334 4.171852 55.182223 69.404444z" fill="#FFFFFF" p-id="13674"></path><path d="M490.382222 526.980741l-84.005926 4.74074v-197.214814l-68.456296 3.792592v197.025185l-199.68 11.567408V591.644444l138.808889-7.964444-61.62963 80.971852L140.325926 669.392593v44.752592l126.672593-7.395555 97.28-127.810371 126.103703-7.205926z" fill="#FFFFFF" p-id="13675"></path></svg>